<svg xmlns="http://www.w3.org/2000/svg" width="21.45" height="21.45" viewBox="0 0 21.45 21.45">
  <g id="instagram" transform="translate(0 0)">
    <path id="Path_11" data-name="Path 11" d="M214.213,210.607A3.607,3.607,0,1,1,210.607,207,3.607,3.607,0,0,1,214.213,210.607Zm0,0" transform="translate(-199.881 -199.882)" fill="#fff"/>
    <path id="Path_12" data-name="Path 12" d="M156.408,138.5a4.332,4.332,0,0,0-2.483-2.483,7.238,7.238,0,0,0-2.429-.45c-1.38-.063-1.793-.076-5.287-.076s-3.907.013-5.287.076a7.242,7.242,0,0,0-2.429.451,4.334,4.334,0,0,0-2.483,2.483,7.239,7.239,0,0,0-.45,2.429c-.063,1.38-.076,1.793-.076,5.287s.014,3.907.076,5.287a7.236,7.236,0,0,0,.45,2.429,4.332,4.332,0,0,0,2.483,2.483,7.23,7.23,0,0,0,2.429.451c1.379.063,1.793.076,5.286.076s3.907-.013,5.287-.076a7.23,7.23,0,0,0,2.429-.451,4.332,4.332,0,0,0,2.483-2.483,7.246,7.246,0,0,0,.451-2.429c.063-1.38.076-1.793.076-5.287s-.013-3.907-.076-5.287A7.227,7.227,0,0,0,156.408,138.5Zm-10.2,14.433a6.718,6.718,0,1,1,6.718-6.718A6.718,6.718,0,0,1,146.21,152.931Zm6.983-12.131a1.57,1.57,0,1,1,1.57-1.57A1.57,1.57,0,0,1,153.193,140.8Zm0,0" transform="translate(-135.485 -135.489)" fill="#fff"/>
  </g>
</svg>
