<svg xmlns="http://www.w3.org/2000/svg" width="20.752" height="21.457" viewBox="0 0 20.752 21.457">
  <g id="Group_6" data-name="Group 6" transform="translate(0 0)">
    <g id="skype-logo" transform="translate(0 0)">
      <path id="Path_14" data-name="Path 14" d="M20.675,12.241a10.562,10.562,0,0,0,.1-1.442,10.038,10.038,0,0,0-2.9-7.221A9.563,9.563,0,0,0,10.787.563q-.483,0-.923.044A6.59,6.59,0,0,0,7.067,0,6.566,6.566,0,0,0,2.255,2.035,6.8,6.8,0,0,0,.3,6.868,6.864,6.864,0,0,0,.842,9.575,9.4,9.4,0,0,0,.762,10.8a10.012,10.012,0,0,0,2.919,7.226,9.617,9.617,0,0,0,7.107,3.009,9.179,9.179,0,0,0,1.033-.069,6.477,6.477,0,0,0,2.474.491,6.56,6.56,0,0,0,4.793-2.049,6.816,6.816,0,0,0,1.97-4.855A7.215,7.215,0,0,0,20.675,12.241Zm-5.958,2.347a3.623,3.623,0,0,1-1.544,1.228,6.5,6.5,0,0,1-2.421.421,5.832,5.832,0,0,1-2.772-.6,3.538,3.538,0,0,1-1.264-1.156,2.723,2.723,0,0,1-.493-1.439,1.012,1.012,0,0,1,.316-.737,1.089,1.089,0,0,1,.807-.316,1.227,1.227,0,0,1,.7.246,1.764,1.764,0,0,1,.42.7q.036.035.457.807a1.868,1.868,0,0,0,.631.49,2.531,2.531,0,0,0,1.124.211,2.791,2.791,0,0,0,1.58-.42,1.156,1.156,0,0,0,.56-.983.876.876,0,0,0-.316-.737,2.14,2.14,0,0,0-.806-.492c-.093-.024-.217-.054-.368-.086s-.329-.082-.527-.142a4.3,4.3,0,0,0-.508-.122,9.471,9.471,0,0,1-2.036-.632,3.286,3.286,0,0,1-1.333-.981,2.6,2.6,0,0,1-.491-1.58,2.613,2.613,0,0,1,.527-1.614A3.134,3.134,0,0,1,8.469,5.6a6.1,6.1,0,0,1,2.247-.385,6.313,6.313,0,0,1,1.789.246,4.433,4.433,0,0,1,1.3.668,4.759,4.759,0,0,1,.737.841,2.427,2.427,0,0,1,.247.912,1.043,1.043,0,0,1-.317.771,1.1,1.1,0,0,1-.806.353A1.071,1.071,0,0,1,13,8.8a3.675,3.675,0,0,1-.457-.631,2.389,2.389,0,0,0-.665-.879,2.172,2.172,0,0,0-1.3-.315,2.156,2.156,0,0,0-1.333.352.893.893,0,0,0-.491.737.613.613,0,0,0,.175.457,1.2,1.2,0,0,0,.457.387,3.3,3.3,0,0,0,.6.244c.07.024.227.066.473.122a6.116,6.116,0,0,0,.615.123q.489.105,1.684.457a6.75,6.75,0,0,1,1.333.632,2.773,2.773,0,0,1,.879.945,3.422,3.422,0,0,1,.279,1.4A3.178,3.178,0,0,1,14.717,14.588Z" transform="translate(-0.305 0)" fill="#fff"/>
    </g>
  </g>
</svg>
