<svg xmlns="http://www.w3.org/2000/svg" width="21.393" height="21.393" viewBox="0 0 21.393 21.393">
  <g id="Group_7" data-name="Group 7" transform="translate(0 0)">
    <g id="whatsapp" transform="translate(0 0)">
      <g id="Group_5" data-name="Group 5">
        <path id="Path_15" data-name="Path 15" d="M10.7,0h-.005A10.69,10.69,0,0,0,2.036,16.966L.7,20.939l4.111-1.314A10.694,10.694,0,1,0,10.7,0Zm6.224,15.1a3.018,3.018,0,0,1-2.1,1.51c-.559.119-1.289.214-3.746-.8a13.4,13.4,0,0,1-5.325-4.7,6.109,6.109,0,0,1-1.27-3.226,3.415,3.415,0,0,1,1.094-2.6,1.554,1.554,0,0,1,1.094-.384c.132,0,.251.007.358.012.314.013.472.032.679.528.258.622.886,2.157.961,2.314a.637.637,0,0,1,.045.579,1.848,1.848,0,0,1-.346.491c-.158.182-.308.321-.465.516-.144.17-.308.352-.126.666a9.494,9.494,0,0,0,1.735,2.157A7.864,7.864,0,0,0,12.02,13.7a.676.676,0,0,0,.754-.119,12.942,12.942,0,0,0,.836-1.107.6.6,0,0,1,.767-.233c.289.1,1.817.856,2.131,1.012s.521.233.6.365A2.664,2.664,0,0,1,16.923,15.1Z" fill="#fff"/>
      </g>
    </g>
  </g>
</svg>
