<svg xmlns="http://www.w3.org/2000/svg" width="11.978" height="12.923" viewBox="0 0 11.978 12.923">
  <g id="noun_contact_2438033" transform="translate(-275.749 -291.429)">
    <g id="Group_46" data-name="Group 46" transform="translate(275.749 291.429)">
      <path id="Path_36" data-name="Path 36" d="M1.748-.247A5.048,5.048,0,0,0-.185,1.74C-.5,2.785.39,5.137.912,6.078a14.783,14.783,0,0,0,5.645,5.7,7.922,7.922,0,0,0,2.718.889,1.721,1.721,0,0,0,1.2-.523c.732-.784,1.725-1.15.993-1.986L9.85,8.325a.579.579,0,0,0-.732-.209A16.865,16.865,0,0,0,7.6,9.423c-1.15.47-4.861-3.815-4.913-5.07,0-.575,1.1-1.045,1.516-1.673a.643.643,0,0,0,.052-.627A14.176,14.176,0,0,0,2.376-.037.768.768,0,0,0,1.748-.247Z" transform="translate(0.251 0.26)" fill="#fff" fill-rule="evenodd"/>
    </g>
  </g>
</svg>
